<svg xmlns="http://www.w3.org/2000/svg" xmlns:xlink="http://www.w3.org/1999/xlink" width="71" zoomAndPan="magnify" viewBox="0 0 53.25 38.999999" height="52" preserveAspectRatio="xMidYMid meet" version="1.0"><defs><g/><clipPath id="6f321b44db"><path d="M 0 0.269531 L 52.511719 0.269531 L 52.511719 38.726562 L 0 38.726562 Z M 0 0.269531 " clip-rule="nonzero"/></clipPath></defs><g clip-path="url(#6f321b44db)"><path fill="#ffffff" d="M 0 0.269531 L 52.511719 0.269531 L 52.511719 38.730469 L 0 38.730469 Z M 0 0.269531 " fill-opacity="1" fill-rule="nonzero"/><path fill="#31363f" d="M 0 0.269531 L 52.511719 0.269531 L 52.511719 38.730469 L 0 38.730469 Z M 0 0.269531 " fill-opacity="1" fill-rule="nonzero"/></g><path fill="#ffffff" d="M 7.78125 30.53125 L 44.730469 30.53125 L 44.730469 33.289062 L 7.78125 33.289062 Z M 7.78125 30.53125 " fill-opacity="1" fill-rule="nonzero"/><g fill="#ffffff" fill-opacity="1"><g transform="translate(7.78177, 29.11106)"><g><path d="M 9.015625 -19.46875 C 11.066406 -19.46875 12.859375 -19.0625 14.390625 -18.25 C 15.929688 -17.4375 17.117188 -16.296875 17.953125 -14.828125 C 18.796875 -13.359375 19.21875 -11.660156 19.21875 -9.734375 C 19.21875 -7.828125 18.796875 -6.132812 17.953125 -4.65625 C 17.117188 -3.175781 15.925781 -2.03125 14.375 -1.21875 C 12.832031 -0.40625 11.046875 0 9.015625 0 L 1.71875 0 L 1.71875 -19.46875 Z M 8.703125 -4.109375 C 10.503906 -4.109375 11.898438 -4.597656 12.890625 -5.578125 C 13.890625 -6.554688 14.390625 -7.941406 14.390625 -9.734375 C 14.390625 -11.523438 13.890625 -12.921875 12.890625 -13.921875 C 11.898438 -14.921875 10.503906 -15.421875 8.703125 -15.421875 L 6.46875 -15.421875 L 6.46875 -4.109375 Z M 8.703125 -4.109375 "/></g></g></g><g fill="#ffffff" fill-opacity="1"><g transform="translate(27.947525, 29.11106)"><g><path d="M 0.78125 -7.734375 C 0.78125 -9.347656 1.109375 -10.753906 1.765625 -11.953125 C 2.421875 -13.148438 3.332031 -14.070312 4.5 -14.71875 C 5.675781 -15.375 7.023438 -15.703125 8.546875 -15.703125 C 10.484375 -15.703125 12.101562 -15.191406 13.40625 -14.171875 C 14.707031 -13.148438 15.5625 -11.71875 15.96875 -9.875 L 10.921875 -9.875 C 10.503906 -11.050781 9.679688 -11.640625 8.453125 -11.640625 C 7.585938 -11.640625 6.894531 -11.300781 6.375 -10.625 C 5.863281 -9.957031 5.609375 -8.992188 5.609375 -7.734375 C 5.609375 -6.484375 5.863281 -5.519531 6.375 -4.84375 C 6.894531 -4.164062 7.585938 -3.828125 8.453125 -3.828125 C 9.679688 -3.828125 10.503906 -4.421875 10.921875 -5.609375 L 15.96875 -5.609375 C 15.5625 -3.796875 14.703125 -2.367188 13.390625 -1.328125 C 12.078125 -0.296875 10.460938 0.21875 8.546875 0.21875 C 7.023438 0.21875 5.675781 -0.101562 4.5 -0.75 C 3.332031 -1.394531 2.421875 -2.316406 1.765625 -3.515625 C 1.109375 -4.722656 0.78125 -6.128906 0.78125 -7.734375 Z M 0.78125 -7.734375 "/></g></g></g></svg>